<svg width="12224" height="1997" viewBox="0 0 12224 1997" fill="none" xmlns="http://www.w3.org/2000/svg"><g clip-path="url(#clip0)"><path d="M524.42 228.859c-86.59-45.581-236.319 39.21-405.643 229.711 2.08-109.556-23.928-182.234-75.156-210.027-89.744-47.346-247.142 45.519-423.34 249.775-10.367-15.449-22.852-27.32-37.344-35.508-154.425-82.246-493.064 251.842-756.377 746.21-6.25 12.01-12.42 24.04-18.51 36.11l1849.63 985.15a3231.653 3231.653 0 0039.152-71.07c126.448-237.41 218.261-480.78 255.234-676.58 36.985-195.8 16.089-327.99-58.062-367.49-38.801-20.18-90.761-14.55-152.649 16.53 57.04-234.952 41.747-397.007-41.685-441.767-36.299-19.065-84.241-15.448-141.139 10.658 65.616-250.487 53.001-424.945-34.111-471.702" fill="url(#paint0_linear)"/><path d="M8926.68 923c95.75.33 186.05 100.65 244.64 271.78 48.6-67.47 104.47-103.33 161.49-103.64 99.28.27 192.47 108.01 250.68 289.76 16.06-6.05 32.31-9.24 48.58-9.52 171.18 0 309.93 313.67 309.93 700.59-.11 9.35-.33 18.7-.62 28.03H7891.12c-.71-18.64-1.09-37.34-1.12-56.05-.02-185.81 32.64-364.01 90.77-495.4 58.13-131.38 136.96-205.2 219.16-205.2 42.78.3 85.06 20.61 124.2 59.65 58.81-161.77 146.55-255.61 239.19-255.81 40.11.16 79.84 17.94 116.97 52.33 58.54-174.03 149.68-276.301 246.39-276.52z" fill="url(#paint1_linear)"/><path d="M3218.43 865c-259.16.391-480.39 256.77-523.77 606.98-52.7-26.18-108.56-39.73-164.91-39.98-115.61.28-227.1 56.43-313.19 157.73-82.15-88.85-183-137.19-286.84-137.48-251.3.2-458.12 276.61-469.72 627.75h3584c-19.14-318.82-256.76-566.64-543.67-567-43.71.22-87.23 6.28-129.64 18.07-67.8-256-226.36-422.79-402.21-423.07-100.61.15-198.09 55.14-275.95 155.67-90.71-244.6-273.92-398.661-474.1-398.67z" fill="url(#paint2_linear)"/><path d="M2427.61 1377c-74.92.19-145.59 56.77-191.45 153.3-38.03-38.06-81.76-58.29-126.39-58.46-77.69.15-150.63 60.92-196.19 163.44-12.56-3.42-25.28-5.21-38.01-5.37-133.97 0-242.57 176.92-242.57 395.16.1 5.28.26 10.55.49 15.81h1604.6c.54-10.51.84-21.06.86-31.61 0-104.81-25.54-205.32-71.04-279.43-45.49-74.11-107.18-115.74-171.52-115.74-33.48.16-66.57 11.62-97.2 33.64-46.02-91.25-114.69-144.18-187.18-144.29-31.4.1-62.5 10.12-91.56 29.52-45.82-98.16-117.14-155.85-192.84-155.97" fill="url(#paint3_linear)"/><path d="M841.566 338c-304.43.454-564.295 297.975-615.248 704.4-61.91-30.39-127.524-46.105-193.72-46.401-135.808.322-266.771 65.481-367.896 183.051-96.494-103.11-214.964-159.21-336.943-159.55-295.187.23-538.129 321-551.759 728.5h4210c-22.48-369.99-301.6-657.59-638.63-658-51.35.25-102.47 7.29-152.29 20.97-79.63-297.09-265.89-490.646-472.46-490.973-118.18.18-232.69 63.998-324.14 180.654C1291.93 516.802 1076.71 338.01 841.566 338z" fill="url(#paint4_linear)"/><path d="M916.781 1286c-97.853.24-190.146 72.3-250.04 195.23-49.666-48.46-106.786-74.23-165.066-74.45-101.467.2-196.734 77.59-256.227 208.15-16.413-4.35-33.013-6.64-49.653-6.84C20.833 1608.09-121 1833.41-121 2111.35c.127 6.72.339 13.43.635 20.13H1975.26c.72-13.39 1.11-26.82 1.15-40.26 0-133.47-33.38-261.48-92.79-355.86-59.4-94.38-139.99-147.41-224-147.41-43.73.22-86.95 14.8-126.96 42.85-60.11-116.21-149.79-183.61-244.47-183.76-41 .12-81.61 12.89-119.56 37.6-59.84-125.02-152.98-198.48-251.849-198.64" fill="url(#paint5_linear)"/><path d="M-268.064 654c-90.14.405-175.16 123.653-230.332 333.903-45.744-82.898-98.356-126.959-152.049-127.341-93.448.342-181.201 132.697-236.014 355.998-15.11-7.44-30.407-11.35-45.73-11.7-161.161 0-291.811 385.35-291.811 860.71.12 11.49.31 22.96.59 34.43H706.933c.667-22.9 1.027-45.87 1.067-68.86 0-228.27-30.74-447.2-85.473-608.62-54.719-161.41-128.95-252.1-206.341-252.1-40.276.36-80.098 25.32-116.933 73.28-55.373-198.75-137.978-314.029-225.198-314.272-37.769.199-75.178 22.035-110.132 64.292C-91.197 779.914-177.003 654.266-268.064 654z" fill="url(#paint6_linear)"/><path d="M11541.1 1403c80.7.18 156.8 54.58 206.2 147.38 41-36.59 88.1-56.04 136.2-56.21 83.7.15 162.3 58.57 211.4 157.13 13.5-3.28 27.2-5.01 40.9-5.17 144.4.01 261.3 170.09 261.3 379.9 0 5.08-.2 10.14-.5 15.2h-1728.7c-.6-10.11-.9-20.24-.9-30.39 0-100.75 27.5-197.39 76.5-268.63 49-71.25 115.5-111.27 184.8-111.27 36.1.16 71.7 11.17 104.7 32.34 49.6-87.72 123.6-138.61 201.7-138.71 33.8.09 67.3 9.72 98.6 28.38 49.4-94.37 126.2-149.83 207.8-149.95z" fill="url(#paint7_linear)"/><path d="M7445.34 1110.67c99.79.62 193.6 85.23 254.17 229.22 50.83-56.52 109.16-86.45 168.58-86.51 103.46.58 200.27 91.43 260.41 244.34 16.76-5.03 33.69-7.64 50.65-7.83 178.4.61 322.09 264.64 320.99 589.73-.14 7.86-.4 15.71-.73 23.55l-2136.6-7.26c-.69-15.67-1.03-31.38-1.01-47.1.51-156.11 35.05-305.72 96.01-415.91 60.95-110.18 143.31-171.92 228.97-171.63 44.58.4 88.59 17.61 129.27 50.56 61.75-135.71 153.44-214.25 249.98-214.08 41.81.28 83.16 15.35 121.75 44.38 61.51-146.01 156.77-231.62 257.56-231.46z" fill="url(#paint8_linear)"/><path d="M6388.02 775c-138.71.353-269.53 108.26-354.43 292.34-70.4-72.578-151.36-111.156-233.97-111.49-143.83.298-278.86 116.18-363.19 311.68-23.27-6.51-46.8-9.94-70.39-10.25-248 .01-449.04 337.39-449.04 753.57.18 10.06.48 20.11.9 30.15h2970.47c1.03-20.05 1.57-40.16 1.63-60.28 0-199.87-47.31-391.54-131.52-532.86-84.2-141.33-198.43-220.72-317.51-220.72-61.99.32-123.25 22.16-179.96 64.16-85.2-174.01-212.32-274.95-346.53-275.16-58.11.18-115.68 19.3-169.47 56.29-84.82-187.19-216.85-297.194-356.99-297.43" fill="url(#paint9_linear)"/><path d="M4845.09 865c-151.45.355-294.28 108.259-386.97 292.34-76.87-72.58-165.26-111.16-255.47-111.49-157.02.3-304.45 116.18-396.53 311.68-25.4-6.51-51.09-9.94-76.84-10.25-270.78.01-490.28 337.39-490.28 753.58.2 10.05.52 20.1.98 30.14h3243.25c1.12-20.05 1.69-40.16 1.77-60.28 0-199.86-51.65-391.54-143.6-532.86-91.95-141.33-216.66-220.72-346.69-220.72-67.66.32-134.56 22.16-196.47 64.16-93.02-174.01-231.81-274.95-378.34-275.16-63.47.18-126.31 19.3-185.04 56.29-92.61-187.19-236.77-297.195-389.77-297.43z" fill="url(#paint10_linear)"/><path d="M9718.4 1118c-153.17.31-297.63 94.75-391.39 255.85-77.73-63.51-167.13-97.28-258.36-97.57-158.83.26-307.94 101.68-401.06 272.78-25.69-5.7-51.68-8.7-77.73-8.97-273.86.01-495.86 295.28-495.86 659.53.2 8.8.53 17.6.99 26.38h3280.21c1.1-17.55 1.7-35.15 1.8-52.76 0-174.92-52.2-342.67-145.2-466.36-93-123.68-219.2-193.17-350.7-193.17-68.4.28-136.1 19.4-198.7 56.15-94.1-152.29-234.4-240.63-382.6-240.81-64.2.15-127.8 16.88-187.2 49.26-93.7-163.83-239.46-260.1-394.2-260.31" fill="url(#paint11_linear)"/><path d="M10991.4 55.148c-145.3 69.189-197.4 314.44-141.3 664.428-131.1-86.616-246.5-111.123-333.4-70.826-150.7 71.629-201 332.307-135.3 701.13-29.5.61-56.9 6.52-81.9 17.67-260.2 122.65-205 786.6 123.2 1482.96 8.2 16.74 16.4 33.41 24.7 50l3116.7-1469.09c-14.8-34.05-30.1-67.97-45.9-101.67-157.6-334.41-358.4-631.73-558.2-826.545-199.8-194.825-382.3-271.176-507.3-212.281-64.7 31.19-111.8 98.032-138.2 196.355-226.6-249.018-439.6-355.036-580.6-289.017-60.8 29.036-106.1 89.496-133.4 177.999-236.6-271.263-461.9-390.027-609.1-321.113" fill="url(#paint12_linear)"/><path d="M2249.13 1403c-110.81.23-215.32 70.38-283.14 190.04-56.24-47.18-120.91-72.26-186.91-72.47-114.89.19-222.76 75.52-290.14 202.61-18.58-4.23-37.38-6.46-56.22-6.66-198.12.01-358.72 219.33-358.72 489.88.14 6.54.38 13.08.72 19.6h2372.99c.81-13.03 1.23-26.11 1.29-39.19 0-129.92-37.79-254.53-105.07-346.4-67.27-91.87-158.52-143.48-253.66-143.48-49.51.2-98.45 14.4-143.75 41.7-68.06-113.12-169.61-178.73-276.82-178.87-46.44.12-92.42 12.54-135.39 36.6-67.76-121.7-173.24-193.21-285.18-193.36z" fill="url(#paint13_linear)"/></g><defs><linearGradient id="paint0_linear" x1="-187.781" y1="1568.55" x2="207.831" y2="834.633" gradientUnits="userSpaceOnUse"><stop stop-color="#CDF2FD"/><stop offset="1" stop-color="#F8FDFE"/></linearGradient><linearGradient id="paint1_linear" x1="8934.32" y1="2212.84" x2="8991.78" y2="1273.83" gradientUnits="userSpaceOnUse"><stop stop-color="#B7ECFC"/><stop offset=".57" stop-color="#CCF1FC"/><stop offset="1" stop-color="#F2FBFD"/></linearGradient><linearGradient id="paint2_linear" x1="3811.63" y1="1906.23" x2="3798.8" y2="1161.93" gradientUnits="userSpaceOnUse"><stop stop-color="#CDF2FD"/><stop offset="1" stop-color="#F8FDFE"/></linearGradient><linearGradient id="paint3_linear" x1="2421.64" y1="2104.53" x2="2403" y2="1573.72" gradientUnits="userSpaceOnUse"><stop stop-color="#B7ECFC"/><stop offset=".57" stop-color="#CCF1FC"/><stop offset="1" stop-color="#F2FBFD"/></linearGradient><linearGradient id="paint4_linear" x1="1538.37" y1="1546.34" x2="1523.67" y2="682.574" gradientUnits="userSpaceOnUse"><stop stop-color="#CDF2FD"/><stop offset="1" stop-color="#F8FDFE"/></linearGradient><linearGradient id="paint5_linear" x1="917.968" y1="2038.89" x2="918.992" y2="1625.16" gradientUnits="userSpaceOnUse"><stop stop-color="#CDF2FD"/><stop offset="1" stop-color="#F8FDFE"/></linearGradient><linearGradient id="paint6_linear" x1="-188.939" y1="2740.01" x2="-258.586" y2="1183.29" gradientUnits="userSpaceOnUse"><stop stop-color="#D2F3FD"/><stop offset="1" stop-color="#fff"/></linearGradient><linearGradient id="paint7_linear" x1="11547.5" y1="2102.42" x2="11567.6" y2="1592.12" gradientUnits="userSpaceOnUse"><stop stop-color="#B7ECFC"/><stop offset=".57" stop-color="#CCF1FC"/><stop offset="1" stop-color="#F2FBFD"/></linearGradient><linearGradient id="paint8_linear" x1="7449.62" y1="2194.4" x2="7491.27" y2="1404.56" gradientUnits="userSpaceOnUse"><stop stop-color="#B7ECFC"/><stop offset=".57" stop-color="#CCF1FC"/><stop offset="1" stop-color="#F2FBFD"/></linearGradient><linearGradient id="paint9_linear" x1="6389.7" y1="1902.35" x2="6391.32" y2="1282.84" gradientUnits="userSpaceOnUse"><stop stop-color="#CDF2FD"/><stop offset="1" stop-color="#F8FDFE"/></linearGradient><linearGradient id="paint10_linear" x1="4800.35" y1="2725.76" x2="4850.01" y2="1207.33" gradientUnits="userSpaceOnUse"><stop stop-color="#CDF2FD"/><stop offset="1" stop-color="#fff"/></linearGradient><linearGradient id="paint11_linear" x1="9716.18" y1="2082.41" x2="9688.04" y2="1557.7" gradientUnits="userSpaceOnUse"><stop stop-color="#D5F4FD"/><stop offset="1" stop-color="#F8FDFE"/></linearGradient><linearGradient id="paint12_linear" x1="11882.3" y1="1940.62" x2="11398" y2="902.024" gradientUnits="userSpaceOnUse"><stop stop-color="#CDF2FD"/><stop offset="1" stop-color="#F8FDFE"/></linearGradient><linearGradient id="paint13_linear" x1="2216.39" y1="2612.64" x2="2245.08" y2="1625.32" gradientUnits="userSpaceOnUse"><stop stop-color="#CDF2FD"/><stop offset="1" stop-color="#fff"/></linearGradient><clipPath id="clip0"><path fill="#fff" d="M0 0h12224v1997H0z"/></clipPath></defs></svg>